# xmcd
# 
# Track frame offsets:
#   150
#   32080
#   48316
#   60505
#   79249
#   94632
#   110421
#   122930
#   141957
#   173887
#   190096
#   202277
#   221099
#   236488
#   252274
#   264813
# 
# Disc length: 3785 seconds
# 
# Revision: 0
# Processed by: cddbd v1.5.2PL0 Copyright (c) Steve Scherf et al.
# Submitted via: VOLTOCDX V1.0.24 
# 
DISCID=e60ec710
DTITLE=Various Artist - Super Country Party Songs
DYEAR=2009
DGENRE=Karaoke
TTITLE0=Friends In Low Places - Garth Brooks
TTITLE1=I Love This Bar - Toby Keith
TTITLE2=I Like It, I love It - Tim McGraw
TTITLE3=Boot Scootin Boogie - Brooks and Dunn
TTITLE4=Take This Job And Shove It - Johnny Paycheck
TTITLE5=Ten Rounds With Jose Cuervo - Tracy Byrd
TTITLE6=
TTITLE7=
TTITLE8=
TTITLE9=
TTITLE10=
TTITLE11=
TTITLE12=
TTITLE13=
TTITLE14=
TTITLE15=
EXTD=
EXTT0=
EXTT1=
EXTT2=
EXTT3=
EXTT4=
EXTT5=
EXTT6=
EXTT7=
EXTT8=
EXTT9=
EXTT10=
EXTT11=
EXTT12=
EXTT13=
EXTT14=
EXTT15=
PLAYORDER=
